<?xml version="1.0" encoding="utf-8"?>
<!-- Uploaded to: SVG Repo, www.svgrepo.com, Generator: SVG Repo Mixer Tools -->
<svg width="800px" height="800px" viewBox="-40.45 0 297.451 297.451" xmlns="http://www.w3.org/2000/svg"><defs><style>.a{fill:#ffffff;}.b{fill:#211715;}.c{fill:#85807f;}.d{fill:#ffda71;}</style></defs><path class="a" d="M157.679,79.732a7.845,7.845,0,0,1,5.7-1.072c3.864.708,5.22,2.956,5.755,4.235,1.594,3.825.54,10.267-1.487,14.055a20.537,20.537,0,0,1-8.04,8.894,15.141,15.141,0,0,1-7.089,1.507l-.211.374c-.967,1.956-3.242,5.374-3.242,5.374a70.616,70.616,0,0,1-7.371,9.089l2.087,6.084a27.825,27.825,0,0,0,2.28,5.364c2.724,4.488,8.508,6.864,13.224,9.168.777.38,1.637.765,2.539,1.15-.589.464-2.325,1.837-2.325,1.837a77.531,77.531,0,0,1-45.672,15.4c-6.168,0-12.42-.78-18.156-3.36a28.675,28.675,0,0,1-13.208-11.856c2.822-.92,5.595-1.893,7.556-2.712a10.868,10.868,0,0,0,6.348-5.64l.081-.2c-8.073-1-15.141-4.328-21.818-10.144-8.438-7.349-11.861-18.635-12.838-31.028-.563-7.146-1-14.908-1.787-22.675,0,0-3.368-32.79,50.965-32.79C157.972,40.784,157.679,79.732,157.679,79.732Z"/><path class="b" d="M139.381,122.826a91.451,91.451,0,0,0,3.967,10.838,17.971,17.971,0,0,0,6.569,6.944c5.441,3.55,11.726,5.84,17.708,8.278a2.414,2.414,0,0,0,2.952-1.676,2.459,2.459,0,0,0-1.676-2.952c-5.4-2.2-10.941-4.322-15.923-7.391a13.821,13.821,0,0,1-5.384-5.425c-1.571-3.092-2.462-6.619-3.585-9.892-1-2.905-5.635-1.657-4.628,1.276Z"/><path class="b" d="M84.985,147.65c2.127-.75,4.267-1.485,6.358-2.328a13.19,13.19,0,0,0,7.1-6.492,2.456,2.456,0,0,0-.861-3.283,2.428,2.428,0,0,0-3.283.861c-.141.3-.292.6-.462.891-.112.191-.354.754-.558.848l.15-.189c-.058.073-.117.146-.177.217q-.15.18-.307.353-.348.382-.729.731c-.116.106-.237.206-.354.311-.463.413.4-.271-.105.089-.255.182-.511.359-.778.522q-.436.266-.9.49c-.269.132-.246.193-.014.022a2.372,2.372,0,0,1-.512.194c-1.95.706-3.889,1.445-5.846,2.135a2.4,2.4,0,1,0,1.276,4.628Z"/><path class="a" d="M15.95,200.631c2.618-11.207,5.53-22.926,10.819-33.185,6.972-13.549,12.35-18.594,23.527-23.58l33.821,4.673a29.144,29.144,0,0,0,11.556,9.288c5.736,2.58,11.988,3.36,18.156,3.36a77.531,77.531,0,0,0,45.672-15.4l2.52-1.992,1.5-1.181c18.01,6.6,28.336,11.728,39.408,23.5,3.421,3.638,8.733,9.949,10.233,19.7,1,6.5,1.639,11.449.3,18.7-1.2,6.5-2.841,10.1-5.3,16.1-3.277,8-6.639,15.437-10.385,22.69.058,1.536.106,2.709.106,2.709.157,4.6.762,11.738,1.743,20.322.759,6.637,2.359,20.883,3.568,28.174l-147.918.622c-.3-7.8-.993-24.85-1.281-31.55l-.206-4.794-1.568,1.9c-6.721,8.155-19.607,11.156-28.953,6.218-8.7-4.6-12.61-15.211-12.89-25.047-.382-13.364,2.4-27.65,5.433-40.621Z"/><path class="a" d="M74.36,159.689A135.568,135.568,0,0,0,71.169,175.6l-.064.362c-7.309-2.593-18.1-6.319-25.629-8.852,2.458-5.93,4.995-12.182,5.093-13.482a41.222,41.222,0,0,0-.328-9.451c-1.432-9.978-2.192-14.869-2.754-23.925a68.969,68.969,0,0,1,.883-16.76,2.892,2.892,0,0,1,1.88-2.27,3.893,3.893,0,0,1,2.25-.2c.485-2.29.945-4.667,1.432-7.2.4-2.108.694-2.921,2.089-4.092l5.285-2.583,23.166,44.3-.133,5.656c-.384,2.768-.849,7.642-2.173,9.967A20.221,20.221,0,0,1,80,149.992a29.774,29.774,0,0,0-5.645,9.692"/><path class="b" d="M138.208,128.656a67.426,67.426,0,0,0,10.622-11.163,55.508,55.508,0,0,0,5.551-8.557,2.458,2.458,0,0,0-.861-3.284,2.423,2.423,0,0,0-3.283.861,60.064,60.064,0,0,1-15.423,18.748,2.42,2.42,0,0,0,0,3.4,2.455,2.455,0,0,0,3.394,0Z"/><path class="c" d="M68.8,25.572a59.425,59.425,0,0,0-8.745,21.036,90.557,90.557,0,0,0-.082,30.258c.191-1.009.318-1.7.318-1.7.936-5.084,10.827-19.01,17.9-22.921.829-.458,1.92.113,2.291,1.507a9.2,9.2,0,0,1,.3,3.35,1.748,1.748,0,0,0,2.532,1.821c3.947-2.31,10.765-7.835,18.641-11.188a74.974,74.974,0,0,1,16.514-.662c3.109,1.27,17.466,6.382,27.972,25.525,1,1.8,1.88,3.689,2.883,5.487a11.139,11.139,0,0,0,1.019,1.6,1.146,1.146,0,0,0,.736.4,16.179,16.179,0,0,0,6.606-.361,7.845,7.845,0,0,1,5.7-1.072c3.864.708,5.22,2.956,5.755,4.235A9.477,9.477,0,0,1,169.7,84.9c3.955-6.768,4.593-19.12,5.047-24.414a48.586,48.586,0,0,0-1.077-14.941c-2.233-9.733-5.766-17.737-13.16-24.822l-1.466-1.405-7.719-5.691C138.91,4.476,127.289,2.1,115.624,2.467,97.14,3.049,82.157,9.909,71.986,21.449A42.025,42.025,0,0,0,68.8,25.572Z"/><path class="b" d="M158.816,22.422c6.585,6.366,10.315,14.346,12.405,23.174,1.993,8.421,1.326,17.285.024,25.779-.66,4.305-1.529,8.863-3.809,12.638-1.6,2.651,2.548,5.067,4.144,2.423a35.252,35.252,0,0,0,4.035-12.205c.7-3.986,1.077-8.017,1.4-12.048a57.221,57.221,0,0,0-.73-15.892,61.685,61.685,0,0,0-4.528-14.017,44.961,44.961,0,0,0-9.545-13.246c-2.222-2.148-5.62,1.242-3.394,3.394Z"/><path class="b" d="M117.825,49.39c.4.164.809.324,1.212.489.112.045.223.092.335.138.363.15-.555-.245-.025-.009.318.142.639.28.956.425a47.154,47.154,0,0,1,4.791,2.539A50.5,50.5,0,0,1,137.329,63.5a61.79,61.79,0,0,1,7.034,10.309c1.5,2.7,5.642.286,4.144-2.422C142.7,60.9,134.13,51.653,123.172,46.5c-1.336-.628-2.7-1.177-4.071-1.733a2.415,2.415,0,0,0-2.952,1.676,2.459,2.459,0,0,0,1.676,2.952Z"/><path class="b" d="M62.608,75.807a11.044,11.044,0,0,1,.515-1.714c.244-.651-.2.443.092-.228q.093-.213.192-.423c.211-.455.436-.9.67-1.346a52.2,52.2,0,0,1,3.287-5.334,55.465,55.465,0,0,1,8.622-9.949,19.934,19.934,0,0,1,1.939-1.562c.339-.238.741-.431,1.062-.691.442-.36.984-.185-.474-.1-.358.021-.188-.218-.346-.068.024-.023.248,1.575.25,1.709a11.046,11.046,0,0,0,.042,1.975,4.228,4.228,0,0,0,2.814,3.274c2.2.711,4.069-.823,5.783-1.973,1.9-1.276,3.783-2.588,5.7-3.839,5.128-3.341,10.553-6.36,16.589-7.656,3.019-.649,1.742-5.277-1.276-4.629A50.674,50.674,0,0,0,92.217,50.2c-2.16,1.344-4.259,2.78-6.361,4.21-.779.53-1.559,1.06-2.35,1.572-.336.218-.708.407-1.028.647-.473.356-.384-.017-.021.125-.2-.077.973.178.679.365.216-.137.076-1.285.057-1.547a11.609,11.609,0,0,0-.4-2.451,4.609,4.609,0,0,0-3.006-3.285c-2.283-.638-4.441,1.314-6.084,2.641A54.787,54.787,0,0,0,64.173,63a56.838,56.838,0,0,0-3.987,6.2,19.311,19.311,0,0,0-2.206,5.329,2.461,2.461,0,0,0,1.676,2.952,2.422,2.422,0,0,0,2.952-1.676Z"/><path class="b" d="M91.681,116.231a16.889,16.889,0,0,0,8.025,1.869,16.453,16.453,0,0,0,4.052-.467,30.4,30.4,0,0,0,4.379-1.814,2.406,2.406,0,0,0,.861-3.284,2.478,2.478,0,0,0-3.284-.861c-.612.262-1.21.553-1.814.831-.146.067-.291.136-.439.2.362-.153-.1.032-.17.057-.237.084-.476.157-.719.221s-.5.12-.747.168c-.129.024-.259.042-.388.066-.352.067.4-.031.039-.006-.591.04-1.176.093-1.77.091-.569,0-1.139-.033-1.706-.09-.142-.014-.283-.031-.424-.048.229.028.245.037.008,0-.275-.049-.55-.1-.823-.155a13.961,13.961,0,0,1-1.645-.456c-.12-.042-.238-.093-.359-.132-.325-.1.352.181.058.029-.236-.123-.478-.229-.712-.358a2.4,2.4,0,0,0-2.422,4.145Z"/><path class="b" d="M109.432,87.423c-.6-2.543.272-8.242,5.025-8.42,6.237.447,6.115,7.4,3.8,10.52C116.363,92.078,111.234,92.856,109.432,87.423Z"/><path class="b" d="M72.311,86.156c-.545-2.549.274-8.268,4.628-8.461,5.711.429,5.578,7.4,3.449,10.541C78.645,90.805,73.945,91.6,72.311,86.156Z"/><path class="b" d="M91.432,92.679c-.831,1.3-1.639,2.635-2.353,4.008a5.943,5.943,0,0,0-.69,1.723,3.438,3.438,0,0,0,.9,3.129,5.074,5.074,0,0,0,1.989,1.246,7.238,7.238,0,0,0,1.564.265l-.638-.085c.062.008.123.018.185.029a2.6,2.6,0,0,0,1.849-.242,2.4,2.4,0,0,0,.861-3.284,2.344,2.344,0,0,0-1.434-1.1c-.383-.068-.771-.1-1.156-.155l.638.086a2.934,2.934,0,0,1-.672-.171l.573.242a2.726,2.726,0,0,1-.5-.286l.485.375a3.067,3.067,0,0,1-.5-.482l.375.485a.72.72,0,0,1-.086-.162l.241.573a.884.884,0,0,1-.045-.177l.086.638a1.573,1.573,0,0,1,0-.283l-.086.638a2.539,2.539,0,0,1,.171-.59l-.242.573a23.616,23.616,0,0,1,1.311-2.405c.428-.728.866-1.45,1.32-2.162a2.421,2.421,0,0,0-.861-3.284,2.453,2.453,0,0,0-3.284.861Z"/><path class="b" d="M152.539,11.557A57.919,57.919,0,0,0,123.529.285,70.257,70.257,0,0,0,94.89,3.653,57.648,57.648,0,0,0,72.206,17.69C65.165,24.868,60.48,34.319,58.163,44.056c-2.626,11.03-2.4,23.12-.362,34.221a2.422,2.422,0,0,0,2.952,1.676A2.453,2.453,0,0,0,62.43,77a82.375,82.375,0,0,1-.275-28.594c1.577-8.981,5.37-18.194,11.4-25.115C85.139,10,102.839,4.27,120.14,4.871c11.028.383,21.112,4.344,29.976,10.831a2.418,2.418,0,0,0,3.284-.861,2.456,2.456,0,0,0-.861-3.284Z"/><path class="b" d="M123.881,130.4c-12.268,5.185-26.609,7.362-38.91,1.074a35.762,35.762,0,0,1-14.29-12.534c-3.442-5.549-5.177-12.007-6.045-18.432-.558-4.128-.748-8.309-1.044-12.461-.345-4.827-.7-9.652-1.185-14.468a2.468,2.468,0,0,0-2.4-2.4,2.417,2.417,0,0,0-2.4,2.4c.855,8.565,1.1,17.2,2.084,25.749.822,7.143,2.481,14.28,6.007,20.609,6.982,12.534,21.367,20.02,35.485,20.2,8.757.115,17.114-2.213,25.121-5.6a2.415,2.415,0,0,0,.861-3.284,2.464,2.464,0,0,0-3.284-.861Z"/><path class="b" d="M158.89,81.8a6,6,0,0,1,7.452,1c.263.3-.164-.246.048.062.061.087.124.176.177.268.1.169.193.338.285.51.041.076.078.157.113.236.131.292-.14-.39.02.08a10.547,10.547,0,0,1,.3,1.076,13.89,13.89,0,0,1,.1,4.522c-.634,5.578-4.018,11.57-9.077,14.254a3.71,3.71,0,0,1-.446.214c-.3.117-.608.219-.917.314a14.747,14.747,0,0,1-2.226.513,8.182,8.182,0,0,1-4.724-.506c-2.753-1.382-5.186,2.757-2.422,4.145,3.578,1.8,8.012,1.556,11.686.116a19.721,19.721,0,0,0,9.014-7.955,25.206,25.206,0,0,0,3.892-10.908c.4-3.54.019-7.433-2.358-10.243-3.156-3.734-9.3-4.376-13.347-1.847-2.614,1.634-.207,5.788,2.422,4.145Z"/><path class="b" d="M82.045,149.75A32.516,32.516,0,0,0,96.3,160.679c5.991,2.388,12.607,3.031,19.01,2.89a79.357,79.357,0,0,0,35.4-9.405,86.835,86.835,0,0,0,13.006-8.668,2.413,2.413,0,0,0,0-3.394,2.459,2.459,0,0,0-3.394,0l-1.26,1c-.289.228-.576.458-.866.685-.092.072-.544.4-.265.2a77.9,77.9,0,0,1-7.358,4.775,76.18,76.18,0,0,1-15.618,6.8,72.188,72.188,0,0,1-16.47,3.074,51.684,51.684,0,0,1-17.459-1.41,27.716,27.716,0,0,1-14.839-9.892,2.472,2.472,0,0,0-3.283-.861,2.416,2.416,0,0,0-.861,3.283Z"/><path class="b" d="M195.478,246.018c.249,6.991,1.018,13.968,1.811,20.913.691,6.056,1.383,12.112,2.16,18.157.433,3.36.875,6.721,1.425,10.064a2.419,2.419,0,0,0,2.953,1.676,2.457,2.457,0,0,0,1.676-2.952c-.974-5.921-1.661-11.891-2.364-17.849-.767-6.5-1.542-13-2.137-19.514-.319-3.491-.6-6.99-.724-10.495-.109-3.079-4.91-3.094-4.8,0Z"/><path class="b" d="M51.59,263.586q.678,15.772,1.281,31.55c.116,3.079,4.917,3.094,4.8,0q-.6-15.777-1.281-31.55c-.132-3.077-4.932-3.094-4.8,0Z"/><path class="b" d="M73.483,176.242a147.855,147.855,0,0,1,3.191-15.915,2.4,2.4,0,1,0-4.628-1.276,147.612,147.612,0,0,0-3.191,15.915,2.461,2.461,0,0,0,1.676,2.952,2.428,2.428,0,0,0,2.952-1.676Z"/><path class="b" d="M76.669,160.322a22.833,22.833,0,0,1,3.066-6.022c1.258-1.856,2.838-3.465,4.077-5.329a14.823,14.823,0,0,0,1.986-5.426c.2-1.023.355-2.055.5-3.088.079-.571.154-1.143.229-1.714l.075-.58c0,.019.108-.81.055-.419a2.484,2.484,0,0,0-1.677-2.952,2.417,2.417,0,0,0-2.952,1.676c-.5,3.68-.638,7.872-2.825,10.739-2.856,3.745-5.748,7.241-7.16,11.839-.908,2.96,3.723,4.225,4.629,1.276Z"/><path class="b" d="M47.782,167.772c1.5-3.622,3.038-7.241,4.351-10.936a22.18,22.18,0,0,0,.887-9.038c-.265-4.081-1.037-8.138-1.6-12.187-.452-3.276-.841-6.56-1.13-9.854-.33-3.761-.6-7.533-.553-11.311.025-2,.121-3.989.31-5.975.077-.811.166-1.622.291-2.427a8.46,8.46,0,0,1,.44-2.3,1.116,1.116,0,0,1,1.593-.13c1.035,1.182,1.046,3.468,1.251,4.936.6,4.313,1.2,8.64,1.9,12.938a17.5,17.5,0,0,0,2.238,6.24c1.037,1.706,2.37,3.177,3.362,4.926a20.27,20.27,0,0,1,2.666,10.416c0,3.088,4.8,3.094,4.8,0a25.285,25.285,0,0,0-2.458-11.2c-1.6-3.373-4.526-6.011-5.54-9.638a54.112,54.112,0,0,1-1.105-6.611c-.346-2.332-.7-4.662-1.042-7-.525-3.642-.934-9.034-5.406-9.935a6.211,6.211,0,0,0-5.6,1.564c-1.392,1.409-1.585,3.45-1.845,5.314a72.876,72.876,0,0,0-.609,12.786,222.564,222.564,0,0,0,2.471,23.22,68.429,68.429,0,0,1,.822,7.485c.039,1.171.02,2.342-.044,3.511-.011.212-.028.424-.038.635-.059,1.184.059-.115.009.086-.066.262-.129.521-.206.78A129.3,129.3,0,0,1,43.154,166.5a2.414,2.414,0,0,0,1.676,2.952,2.461,2.461,0,0,0,2.952-1.676Z"/><path class="b" d="M55.061,100.48c.433-2.111.824-4.231,1.248-6.344.074-.37.153-.74.255-1.1.048-.174.106-.343.163-.514.153-.461-.257.475-.026.067.079-.139.151-.281.24-.416.038-.058.09-.115.123-.176-.022.04-.385.453-.167.225a10.794,10.794,0,0,1,.821-.794,2.41,2.41,0,0,0,0-3.394,2.462,2.462,0,0,0-3.394,0,7.844,7.844,0,0,0-2.581,4.527c-.471,2.208-.857,4.435-1.311,6.646a2.4,2.4,0,0,0,4.629,1.276Z"/><path class="b" d="M49.085,141.794c-6.11,2.739-11.774,6.267-16.114,11.446-5.519,6.586-9.483,14.6-12.49,22.6-3.449,9.173-5.663,18.787-7.808,28.332A178.88,178.88,0,0,0,8.061,234.5c-.422,8.574.183,17.328,4.5,24.955A23.609,23.609,0,0,0,31.816,271.66,27.3,27.3,0,0,0,53,263.426c6.119-6.52,10.149-15.1,13.453-23.3,6.89-17.106,11.285-35.178,14.739-53.252q.606-3.163,1.195-6.331a2.464,2.464,0,0,0-1.676-2.952,2.421,2.421,0,0,0-2.952,1.676c-1.545,8.233-3.1,16.465-5.062,24.611-2.135,8.884-4.719,17.665-7.673,26.311-2.769,8.1-6,16.123-10.607,23.372-2.02,3.176-4.261,6.431-7.29,8.732a23.291,23.291,0,0,1-9.556,4.215,19.149,19.149,0,0,1-18.545-6.09c-4.76-5.566-6.236-13.262-6.288-20.379a139.323,139.323,0,0,1,3.338-28.9c1.9-9.261,4.018-18.561,6.834-27.589A89.848,89.848,0,0,1,33.793,160.1a36.033,36.033,0,0,1,13.161-11.942c1.487-.8,3.012-1.526,4.553-2.217a2.417,2.417,0,0,0,.861-3.284,2.459,2.459,0,0,0-3.283-.861Z"/><path class="a" d="M153.762,145.418c.986-2.2,1.994-4.444,3.058-6.858a228.264,228.264,0,0,0,7.367-28.014c.223-1.35-.121-3.822-1.21-4.6-1.471-1.048-2.281-.939-4.215-.9.714-4.092,1.264-8.136,1.095-9.793a4.754,4.754,0,0,0-3-4.28c-2.254-.853-4.152-.433-5.224,1.35-.46.765-1.63,2.747-1.63,2.747l-.285.485a5.562,5.562,0,0,0-3.434-1.7,5.287,5.287,0,0,0-5.546,3.507c-.354,1.079-1.378,4.206-1.378,4.206s-.253.772-.669,2.049a4.334,4.334,0,0,0-.809-1.033,3.884,3.884,0,0,0-4.953-.628,8.741,8.741,0,0,0-3.361,4.619c-1.715,6.062-5.193,16.291-7.511,20.723a96.654,96.654,0,0,0-5.942,11.164,44.509,44.509,0,0,0-1.85,7.747,22.117,22.117,0,0,0,1.2,11.564c1.377,3.64,3.56,7.134,4.279,10.966a99.341,99.341,0,0,1,1.047,13.54l.043.98c8.542-1.38,19.461-3.057,28.924-4.472l-.261-1.139c-.525-2.536-1.923-7.895-2.264-9.848a18.143,18.143,0,0,1-.4-5.229,17.969,17.969,0,0,1,1.489-4.758C150.2,153.354,151.944,149.469,153.762,145.418Z"/><path class="b" d="M37.743,167.1c11.562,3.624,23,7.71,34.414,11.788,1.956.7,3.93,1.375,5.854,2.162a2.416,2.416,0,0,0,2.952-1.676,2.461,2.461,0,0,0-1.676-2.953c-4.355-1.78-8.862-3.237-13.3-4.789q-9.71-3.4-19.456-6.687c-2.5-.841-5-1.685-7.511-2.474-2.954-.926-4.219,3.707-1.276,4.629Z"/><path class="b" d="M124.133,128.514c3.426-6.631,5.6-14.026,7.713-21.156.364-1.225,1.591-3.6,3.1-3.632,1.664-.038,2.037,1.876,1.9,3.129a34.752,34.752,0,0,1-1.008,4.494q-.685,2.749-1.436,5.482c-1.041,3.824-2.108,7.656-3.406,11.4-1.014,2.924,3.621,4.181,4.628,1.276,1.3-3.746,2.365-7.578,3.407-11.4.564-2.071,1.11-4.146,1.621-6.231a24.429,24.429,0,0,0,1.029-5.757,7.134,7.134,0,0,0-3.807-6.452,6.325,6.325,0,0,0-7.246,1.065,12.286,12.286,0,0,0-3.664,6.224c-.607,2.074-1.26,4.135-1.942,6.186a89.772,89.772,0,0,1-5.036,12.949c-1.416,2.74,2.725,5.171,4.145,2.423Z"/><path class="b" d="M119.988,126.091a104.27,104.27,0,0,0-5.663,10.514,37.656,37.656,0,0,0-2.407,9.194A24.642,24.642,0,0,0,113,157.991c1.274,3.568,3.352,6.843,4.252,10.544,1.081,4.448.949,9.2,1.144,13.748.132,3.077,4.932,3.094,4.8,0-.173-4.03-.253-8.064-.8-12.067-.532-3.9-2.042-7.287-3.661-10.84a22.841,22.841,0,0,1-2.342-10.688,32.3,32.3,0,0,1,1.826-9.032c1.422-3.926,3.823-7.549,5.912-11.142,1.555-2.676-2.592-5.1-4.145-2.423Z"/><path class="b" d="M154.615,137.647c-1.605,3.634-3.246,7.253-4.859,10.884a112.443,112.443,0,0,0-4.723,11.2c-1.907,5.975.92,12.683,2.156,18.562.635,3.021,5.263,1.743,4.628-1.276-.531-2.529-1.19-5.03-1.772-7.548-.691-2.99-1.282-5.91-.238-8.893,1.2-3.415,2.805-6.724,4.275-10.027,1.555-3.5,3.133-6.978,4.678-10.477a2.476,2.476,0,0,0-.861-3.283,2.418,2.418,0,0,0-3.284.861Z"/><path class="b" d="M144.9,132.782c2.3-7.414,4.332-14.93,6.254-22.45.915-3.577,2.028-7.314,2.127-11.023a7.546,7.546,0,0,0-8.771-7.776,7.67,7.67,0,0,0-5.653,4.142,42.358,42.358,0,0,0-1.807,5.259c-.964,2.942,3.67,4.2,4.628,1.276.763-2.329,1.11-5.5,3.731-5.986a4.063,4.063,0,0,1,1.646.308,2.014,2.014,0,0,1,1.185,1.111c.016.034.192.618.236.815-.126-.567.008.234.011.442a15.141,15.141,0,0,1-.259,2.761c-1.148,6.679-3.215,13.272-5.036,19.789-.939,3.361-1.885,6.723-2.92,10.056-.919,2.957,3.713,4.221,4.628,1.276Z"/><path class="b" d="M152.9,136.989c2.559-8.046,4.987-16.207,6.838-24.449.944-4.2,1.687-8.474,2.23-12.748.487-3.827.637-8.172-3.1-10.5a7.147,7.147,0,0,0-7.373-.218c-1.69,1.087-2.574,3.1-3.565,4.781-1.574,2.666,2.573,5.083,4.144,2.422a13.724,13.724,0,0,1,1.858-3.04c.717-.665,2.351-.15,2.944.587a4.673,4.673,0,0,1,.563,3.3c-.1,1.62-.337,3.23-.589,4.833a181.28,181.28,0,0,1-4.714,20.735c-1.219,4.36-2.493,8.707-3.865,13.022-.938,2.951,3.694,4.214,4.628,1.276Z"/><path class="b" d="M159.971,107.423a2.232,2.232,0,0,1,1.493.376c-.117-.1.129.269.177.411a4.809,4.809,0,0,1,.162.611,7.636,7.636,0,0,1-.329,3.255c-.581,2.928-1.277,5.833-2.006,8.727-1.5,5.951-3.1,11.922-5.169,17.7a2.422,2.422,0,0,0,1.676,2.952,2.448,2.448,0,0,0,2.952-1.676,195.591,195.591,0,0,0,5.756-20.077,78.424,78.424,0,0,0,1.9-9.158,8.459,8.459,0,0,0-1.03-5.256c-1.172-1.9-3.469-2.637-5.586-2.667-3.09-.042-3.092,4.758,0,4.8Z"/><path class="b" d="M109.448,184.762c.917,18.149,1.9,36.365,4.584,54.355a138.169,138.169,0,0,0,4.674,21.541c1.784,5.6,4.072,11.176,8.168,15.5a35.159,35.159,0,0,0,22.716,11.028,2.4,2.4,0,1,0,0-4.8c-6.915-.465-13.529-3.941-18.445-8.734-3.805-3.709-5.9-8.455-7.566-13.515-4.755-14.426-6.187-29.976-7.425-45.032-.831-10.1-1.395-20.222-1.906-30.343-.156-3.074-4.957-3.093-4.8,0Z"/><path class="b" d="M170.749,228.989c-2.18-12.007-4.181-24.049-6.166-36.09q-.723-4.385-1.42-8.773a2.417,2.417,0,0,0-2.952-1.677,2.46,2.46,0,0,0-1.676,2.953c1.926,12.266,4.028,24.507,6.151,36.74.471,2.709.943,5.418,1.434,8.123a2.421,2.421,0,0,0,2.952,1.676,2.453,2.453,0,0,0,1.677-2.952Z"/><path class="b" d="M149.59,287.186c7.056.148,14.509-.26,20.887-3.586,6.582-3.431,11.337-9.554,15.406-15.58a247.127,247.127,0,0,0,22.334-41.374c2.885-6.759,6-13.555,7.424-20.8a56.166,56.166,0,0,0-.522-22.578c-2.55-11.925-11.641-21.292-21.125-28.348-9.925-7.385-21.665-11.581-33.16-15.829l-2.2-.811a2.421,2.421,0,0,0-2.952,1.676,2.452,2.452,0,0,0,1.676,2.953c10.307,3.808,20.819,7.4,30.138,13.349a70.924,70.924,0,0,1,12.73,10.519,39.13,39.13,0,0,1,8.618,12.379,41.868,41.868,0,0,1,2.429,10.241,48.909,48.909,0,0,1,.445,9.955c-.483,7.054-2.96,13.533-5.619,20a258.973,258.973,0,0,1-20.219,39.9c-3.824,6.062-7.722,12.384-13.234,17.078-5.006,4.263-11.077,5.728-17.524,6.017-1.844.083-3.69.083-5.536.044-3.09-.065-3.089,4.735,0,4.8Z"/><path class="b" d="M112.486,187.076c12.021-2.1,24.1-3.9,36.165-5.709q5.171-.775,10.344-1.534a2.415,2.415,0,0,0,1.676-2.952,2.46,2.46,0,0,0-2.952-1.676q-19.062,2.787-38.086,5.836c-2.81.455-5.619.917-8.423,1.406a2.422,2.422,0,0,0-1.677,2.953,2.455,2.455,0,0,0,2.953,1.676Z"/><path class="d" d="M17.53,87.451a.754.754,0,0,1-1.464.018c-.828-3.192-2.114-7.006-4.066-9.279-2.382-2.773-5.824-3.951-9.014-4.636a.754.754,0,0,1,0-1.473c3.159-.67,6.642-1.85,8.958-4.349,2.205-2.379,3.45-7.167,4.147-10.416a.754.754,0,0,1,1.472-.017c.776,3.249,2.157,8.05,4.366,10.433,2.293,2.475,5.607,3.655,8.67,4.328a.754.754,0,0,1-.012,1.475c-3.27.655-6.855,1.778-9.236,4.55C19.4,80.357,18.281,84.23,17.53,87.451Z"/><path class="b" d="M15.216,86.813l-.106.253.617-1.059.44-.287h1.276q1.131,1.409.738.364-.105-.383-.216-.763-.2-.681-.421-1.356C17.2,82.924,16.805,81.9,16.37,80.9a16.5,16.5,0,0,0-2.942-4.707,14.468,14.468,0,0,0-4.594-3.254c-1.776-.814-3.65-1.1-5.445-1.787l1.059.617,0,2.1-1.059.617c.9-.342,1.9-.469,2.828-.757A23.96,23.96,0,0,0,9.353,72.5a13.527,13.527,0,0,0,5.069-4.031,19.021,19.021,0,0,0,2.6-5.339c.6-1.76.817-3.686,1.473-5.41l-.618,1.059-2.1-.015-.618-1.059c.7,1.72.968,3.655,1.608,5.414a20.581,20.581,0,0,0,2.593,5.221,13.7,13.7,0,0,0,4.874,4.045,22.6,22.6,0,0,0,3.128,1.287c.928.3,1.933.442,2.839.793l-1.059-.617-.01-2.1,1.059-.617c-1.777.652-3.653.9-5.417,1.662a14.261,14.261,0,0,0-4.855,3.3c-2.687,2.9-3.816,6.959-4.7,10.716-.708,3,3.919,4.286,4.628,1.276.726-3.079,1.508-6.731,3.873-9.01a10.913,10.913,0,0,1,4.133-2.355c1.516-.508,3.682-.555,4.852-1.723a3.176,3.176,0,0,0-1.227-5.164,41.878,41.878,0,0,1-4.642-1.508,9.425,9.425,0,0,1-3.619-2.807,16.751,16.751,0,0,1-2.074-4.4c-.521-1.54-.8-3.173-1.354-4.693a3.15,3.15,0,0,0-4.914-1.408c-1.315,1.081-1.4,3.122-1.82,4.675a22.888,22.888,0,0,1-1.7,4.65c-1.568,2.981-4.576,4.317-7.714,5.119a5.54,5.54,0,0,0-2.584,1.007A3.211,3.211,0,0,0,0,72.925c.04,2.413,2.281,2.861,4.138,3.382A13.39,13.39,0,0,1,9.029,78.63,11.184,11.184,0,0,1,12.1,83.036a29.183,29.183,0,0,1,1.06,2.982,13.48,13.48,0,0,0,.944,2.913,3.16,3.16,0,0,0,3.337,1.418,3.348,3.348,0,0,0,2.4-2.26,2.414,2.414,0,0,0-1.676-2.953A2.463,2.463,0,0,0,15.216,86.813Z"/></svg>