<?xml version="1.0" encoding="utf-8"?>
<!-- Uploaded to: SVG Repo, www.svgrepo.com, Generator: SVG Repo Mixer Tools -->
<svg width="800px" height="800px" viewBox="0 -30.23 384.324 384.324" xmlns="http://www.w3.org/2000/svg"><defs><style>.a{fill:#d7ecf8;}.b{fill:#211715;}.c{fill:#3d8dcc;}.d{fill:#ffffff;}.e{fill:#957f6e;}.f{fill:#7abee6;}</style></defs><path class="a" d="M82.967,45.554c-47.613,0-80.523,36.877-80.523,80.028,0,48.28,33.618,81.529,80.526,81.529,48.715,0,80.525-33.559,80.525-81.529C163.5,82.137,130.412,45.554,82.967,45.554Z"/><path class="b" d="M82.967,43.154c-18.012.036-35.952,5.382-50.4,16.281A81.716,81.716,0,0,0,3.818,100.419a91.166,91.166,0,0,0,.016,52.263,78.483,78.483,0,0,0,26.8,39.822c13.479,10.445,30.051,15.928,47,16.861,17.175.945,34.9-2.4,49.858-11.107A75.046,75.046,0,0,0,158.3,163.536a93.949,93.949,0,0,0,6.564-51.2,82.081,82.081,0,0,0-22.256-44.875A81.263,81.263,0,0,0,96.836,44.222a93.743,93.743,0,0,0-13.869-1.068c-3.089-.006-3.094,4.794,0,4.8A79.773,79.773,0,0,1,130.751,63.4a76.082,76.082,0,0,1,26.773,38.339,87.966,87.966,0,0,1,.237,49.135,73.032,73.032,0,0,1-24.032,37.306c-12.105,9.819-27.567,15.076-43.084,16.247-16.419,1.24-33.249-1.517-47.745-9.547a72.326,72.326,0,0,1-30.418-32.786,86.1,86.1,0,0,1-6.734-48.728,77.963,77.963,0,0,1,20.8-42.281,76.941,76.941,0,0,1,43.44-22.172,85.292,85.292,0,0,1,12.979-.957C86.055,47.948,86.061,43.148,82.967,43.154Z"/><path class="b" d="M145.767,192.039a12.556,12.556,0,0,0-12,8.72,12.953,12.953,0,0,0,4.058,13.822,13.463,13.463,0,0,0,14.552.976c4.6-2.629,6.52-8.067,5.759-13.139a12.475,12.475,0,0,0-12.373-10.379c-3.09-.039-3.091,4.761,0,4.8a7.6,7.6,0,0,1,7.442,5.433,8.239,8.239,0,0,1-2.452,8.629c.34-.278-.278.191-.284.195q-.2.133-.41.256c-.21.124-.426.237-.645.347-.695.347.2-.065-.224.1a9.184,9.184,0,0,1-2.576.6,8.768,8.768,0,0,1-4.8-.9,6.743,6.743,0,0,1-3.057-3.242,10.487,10.487,0,0,1-.692-2.4c.017.113.033.34-.017-.182-.027-.282-.041-.566-.047-.849,0-.232,0-.463.005-.695,0-.094.068-.859.028-.561a8.473,8.473,0,0,1,.812-2.633,6.743,6.743,0,0,1,1.644-2.154,9.532,9.532,0,0,1,2.033-1.319,8.12,8.12,0,0,1,3.236-.626C148.854,196.8,148.862,192,145.767,192.039Z"/><path class="b" d="M164.816,215.385a7.732,7.732,0,0,0-7.371,5.4,7.891,7.891,0,0,0,2.53,8.425,8.184,8.184,0,0,0,8.874.6,7.838,7.838,0,0,0,3.535-8.157,7.657,7.657,0,0,0-7.568-6.263,2.4,2.4,0,0,0,0,4.8c.155,0,.308.014.462.018.535.013-.557-.13-.046-.008.235.055.469.1.7.178a1.348,1.348,0,0,0,.266.095l-.315-.133q.126.057.249.12c.236.123.455.326.694.434-.488-.221-.27-.214-.071-.031.065.061.13.124.192.188a2.028,2.028,0,0,0,.269.3c-.342-.213-.253-.37-.093-.111.131.21.253.42.375.636.1.178.026.291-.076-.2.035.171.128.345.177.515.063.217.073.464.148.673-.188-.527-.035-.4-.033-.149,0,.118.011.236.011.355a4.654,4.654,0,0,0-.037.723l.049-.359c-.014.091-.029.182-.047.272-.031.155-.068.308-.112.46-.03.107-.063.212-.1.316l-.045.124q-.138.351.091-.215a5.722,5.722,0,0,0-.3.558c-.055.087-.123.17-.176.259-.153.261.415-.465.1-.145-.164.169-.387.338-.534.519.339-.419.317-.231.084-.077-.07.046-.142.091-.214.134-.11.065-.225.119-.337.181-.4.22.457-.139.156-.062-.236.061-.463.159-.7.215-.089.02-.18.035-.269.056-.257.042-.183.033.219-.025-.095.011-.191.019-.287.026a6.455,6.455,0,0,1-.736.007,2.823,2.823,0,0,0-.427-.034c.046-.006.606.115.224.023-.243-.058-.483-.108-.721-.187-.1-.034-.206-.088-.311-.114.638.158.256.107.044-.008s-.389-.266-.592-.381c.492.277.322.265.189.135-.09-.089-.187-.171-.275-.263-.073-.075-.136-.167-.213-.236-.226-.2.346.515.1.132-.141-.22-.268-.441-.4-.669-.236-.424.184.552.033.085-.028-.085-.061-.169-.088-.255a4.948,4.948,0,0,0-.191-.811c.023.042.052.618.032.21-.007-.148-.021-.295-.025-.443q0-.182,0-.363c0-.071.006-.141.012-.211.025-.261.013-.187-.038.222.088-.252.1-.543.187-.8a2.974,2.974,0,0,0,.137-.383c-.037.245-.21.454-.015.084.122-.234.316-.446.428-.681-.24.5-.209.265-.033.073.091-.1.186-.194.284-.285.2-.182.419-.2-.071.03a3.4,3.4,0,0,0,.336-.231c.116-.073.236-.141.357-.2.082-.043.165-.083.25-.121l-.316.133a4.342,4.342,0,0,0,.823-.247l.144-.029c.259-.043.193-.036-.2.022a2.3,2.3,0,0,0,.614-.032,2.4,2.4,0,0,0,0-4.8Z"/><path class="c" d="M44.317,178.227a27.524,27.524,0,0,1,17.431-16.1l47.12-3.223a25.636,25.636,0,0,1,14.513,10.082s-8.977,10.327-41.347,13.182C66.172,183.563,44.317,178.227,44.317,178.227Z"/><path class="d" d="M43.063,103.445c4.163-16.419,18.815-24.4,35.587-26.031,8.945-.4,18.582,1.378,25.64,5.9,7.327,4.694,12.057,9.719,14.417,17.978a35.991,35.991,0,0,1,1.354,13.929l-.745,5.621a6.064,6.064,0,0,1,2.951-.619,5.1,5.1,0,0,1,3.769,1.788,5.549,5.549,0,0,1,.942,2.416c.605,3.311.813,6.642-.677,9.825a11.069,11.069,0,0,1-3.026,4.071,13.761,13.761,0,0,1-4.843,2.293l-.347.076c-1.348,7.891-8.344,17.822-21.546,22.662a50.336,50.336,0,0,1-23.483,2.295c-12.827-2.425-21.739-11.433-23.883-19.344H48.7a13.755,13.755,0,0,1-5.15-1.477A11.065,11.065,0,0,1,39.9,141.3c-1.987-2.9-2.322-6.22-2.261-9.585a5.534,5.534,0,0,1,.539-2.537,5.1,5.1,0,0,1,3.428-2.375,5.876,5.876,0,0,1,4.329.733l-1.53-5.872c-2.128-4.071-2.8-10.433-1.919-15.515Q42.729,104.76,43.063,103.445Z"/><path class="b" d="M83.583,135.377a1.56,1.56,0,0,1-.256.142l.574-.242a1.139,1.139,0,0,1-.263.072l.638-.086a3.109,3.109,0,0,1-.519-.021,2.467,2.467,0,0,0-2.4,2.4l.086.638a2.4,2.4,0,0,0,.617,1.059l.486.375a2.4,2.4,0,0,0,1.211.328,4.249,4.249,0,0,0,.451.028,6.446,6.446,0,0,0,.758-.1.913.913,0,0,0,.145-.039,5.821,5.821,0,0,0,.715-.3,1.544,1.544,0,0,0,.18-.106,2.314,2.314,0,0,0,1.146-2.392,1.8,1.8,0,0,0-.285-.892l-.376-.486a2.4,2.4,0,0,0-1.059-.617l-.638-.086a2.4,2.4,0,0,0-1.211.328Z"/><path class="b" d="M77.661,148.6a10.2,10.2,0,0,0,7.44,1.927c2.418-.215,5.294-.9,6.967-2.826a2.4,2.4,0,0,0-3.395-3.394c-.075.087-.155.17-.239.25-.216.2-.569.3.081-.04-.344.182-.65.428-1,.6-.088.043-.446.185-.062.038s0,0-.091.031q-.386.144-.782.253c-.3.082-.6.15-.9.207-.073.014-.582.111-.222.045s-.277.028-.355.035a12.122,12.122,0,0,1-1.98.024c-.157-.011-.333-.049-.49-.047.206,0,.484.074.108.007-.251-.045-.5-.1-.744-.167q-.3-.079-.582-.184c-.418-.153.037-.023.172.08a1.894,1.894,0,0,0-.265-.126c-.127-.065-.252-.134-.372-.21-.061-.039-.12-.084-.182-.122-.278-.166.534.427.289.223a2.455,2.455,0,0,0-3.394,0,2.429,2.429,0,0,0,0,3.4Z"/><path class="b" d="M64.675,128.223c-.436,1.969.3,6.351,3.949,6.421,4.785-.432,4.618-5.79,2.808-8.164C69.949,124.537,66,124.009,64.675,128.223Z"/><path class="b" d="M100.794,125.277c.75,1.871.738,6.314-2.855,6.976-4.792.349-5.5-4.966-4.094-7.6C94.992,122.493,98.8,121.333,100.794,125.277Z"/><path class="b" d="M119.812,123.345c1.093-.946,3.448-1.088,4.349.147a6.4,6.4,0,0,1,.7,2.725,17.982,17.982,0,0,1,.139,3.717,9.728,9.728,0,0,1-2.33,5.645,6.257,6.257,0,0,1-2.19,1.694,10.838,10.838,0,0,1-2.682,1.028c-3,.711-1.733,5.34,1.276,4.628a13.672,13.672,0,0,0,7.5-4.565,15.355,15.355,0,0,0,3.263-9.893c-.064-3.39-.5-7.536-3.653-9.492a8.356,8.356,0,0,0-9.761.972,2.421,2.421,0,0,0,0,3.394,2.448,2.448,0,0,0,3.394,0Z"/><path class="b" d="M47.147,125.464a8.317,8.317,0,0,0-9.841.964c-2.649,2.468-2.259,6.687-1.778,9.949a15.162,15.162,0,0,0,4.358,8.658A13.954,13.954,0,0,0,48.7,148.7a2.421,2.421,0,0,0,2.4-2.4,2.446,2.446,0,0,0-2.4-2.4,8.922,8.922,0,0,1-5.2-2.061,10.367,10.367,0,0,1-3.11-5.488,16.18,16.18,0,0,1-.341-3.179,5.663,5.663,0,0,1,.339-3.012c-.151.247.317-.341.318-.342a1.545,1.545,0,0,1,.312-.225,3.272,3.272,0,0,1,1.233-.48,3.511,3.511,0,0,1,2.48.492c2.636,1.625,5.05-2.525,2.422-4.145Z"/><path class="b" d="M46.356,144.215c.931,7.224,5.746,13.207,11.461,17.428a36.021,36.021,0,0,0,11.48,5.584,34.72,34.72,0,0,0,3.427.779c1.015.182-.442-.061.223.04.285.043.571.082.856.12.66.088,1.32.167,1.983.225a48.085,48.085,0,0,0,6.726.086,48.581,48.581,0,0,0,14.678-2.811,2.426,2.426,0,0,0,1.719-2.633,2.377,2.377,0,0,0-2.357-2.081h-.013l.638,4.714c11.379-4.234,22.7-13.955,23.532-26.877a2.4,2.4,0,1,0-4.8,0,11.176,11.176,0,0,1-.419,2.625,21.22,21.22,0,0,1-1.057,3.2,27.463,27.463,0,0,1-3.621,5.962A34.6,34.6,0,0,1,95.9,161.039a2.423,2.423,0,0,0-1.719,2.633,2.377,2.377,0,0,0,2.357,2.081h.013l-.638-4.714a42.578,42.578,0,0,1-11.369,2.493,52.8,52.8,0,0,1-6.25.2c-.963-.028-1.926-.084-2.885-.178-.4-.038-.793-.081-1.187-.139-.177-.025-.352-.058-.529-.084-1.937-.285.5.159-.805-.158-7.021-1.711-13.617-5.14-18.065-11a22.8,22.8,0,0,1-2.544-4.243,16.915,16.915,0,0,1-.7-1.922q-.144-.488-.256-.983c-.037-.162-.068-.324-.1-.486-.019-.088-.123-.773-.065-.324a2.478,2.478,0,0,0-2.4-2.4,2.414,2.414,0,0,0-2.4,2.4Z"/><path class="b" d="M46.478,120.453c-3.563-7.026-2.143-16.308,1.427-23.039A31.412,31.412,0,0,1,63.046,83.778C78.108,76.931,97.49,78.62,109.6,90.435a25.383,25.383,0,0,1,6.519,10.584,38.264,38.264,0,0,1,1.542,14.2c-.183,3.085,4.618,3.075,4.8,0,.55-9.243-1.358-18.689-7.4-25.952-6.146-7.384-15.368-12.01-24.745-13.541a51.1,51.1,0,0,0-27.031,2.781c-7.5,2.951-14.191,7.765-18.486,14.684-5.307,8.548-7.134,20.472-2.462,29.684,1.4,2.755,5.54.328,4.144-2.423Z"/><path class="b" d="M75.681,103.83a11.224,11.224,0,0,1-.641,2.358l.242-.573a8.96,8.96,0,0,1-1.088,1.854l.376-.486a9.42,9.42,0,0,1-1.593,1.606l.485-.376a9.125,9.125,0,0,1-2.041,1.2l.573-.242a8.55,8.55,0,0,1-1.863.526,2.408,2.408,0,0,0-1.434,1.1,2.4,2.4,0,0,0,.861,3.284,2.758,2.758,0,0,0,1.849.242,10.866,10.866,0,0,0,5.811-3.092,11.428,11.428,0,0,0,3.092-6.124,2.584,2.584,0,0,0-.242-1.849,2.4,2.4,0,0,0-4.387.573Z"/><path class="b" d="M86.335,104.527a7.827,7.827,0,0,1-.026,1.69l.085-.638a8.367,8.367,0,0,1-.562,2.066l.242-.574a8.669,8.669,0,0,1-1.081,1.852l.375-.485a8.34,8.34,0,0,1-1.433,1.433l.485-.376a7.848,7.848,0,0,1-1.246.774,2.415,2.415,0,0,0-.861,3.283,2.459,2.459,0,0,0,3.284.861,10.376,10.376,0,0,0,5.538-9.886,2.579,2.579,0,0,0-.7-1.7,2.4,2.4,0,0,0-4.1,1.7Z"/><path class="b" d="M46.631,178.865c.2-.517.2-.519.474-1.088q.3-.642.642-1.266a26.811,26.811,0,0,1,1.555-2.528,26.007,26.007,0,0,1,3.6-4.086,25.085,25.085,0,0,1,9.481-5.459,2.4,2.4,0,0,0-1.276-4.629A30.2,30.2,0,0,0,42,177.588a2.417,2.417,0,0,0,1.676,2.953,2.456,2.456,0,0,0,2.952-1.676Z"/><path class="b" d="M108.23,161.215c.7.183,1.392.391,2.074.632.324.114.643.236.962.361.677.266-.219-.1.164.067.174.077.348.154.521.234a25.843,25.843,0,0,1,3.764,2.149c.282.2.56.4.835.6.336.25-.42-.343.147.113.119.1.237.191.355.288q.835.692,1.611,1.452t1.483,1.583c.248.288.491.582.724.883-.155-.2-.05-.063.039.059.134.185.268.37.4.557a2.4,2.4,0,0,0,4.144-2.422,28.372,28.372,0,0,0-15.947-11.185,2.4,2.4,0,1,0-1.276,4.629Z"/><path class="e" d="M344,153.83c9.666-2.651,10.756-10.268,10.964-14.194.175-3.317-.7-11.685-1.74-17.318-1.436-7.787-4.084-15.9-2.741-40.361.394-5.615,1.022-10.754,1.1-15.47.042-2.412.041-4.454.029-5.792-.1-15.4-7.9-33.345-18.8-41.473C318.941,6.031,305.939,2.443,292.758,2.407,274.569,2.357,259.61,8.6,249.225,19.6c-6,6.351-10.564,15.8-12.571,24.33-1.886,8.014-1.272,16.784-.956,26.5-.017,13.63-.705,28.662-1.743,41.914-.568,7.265-2.087,13.2-1.967,19.666.136,7.378,3.71,13.943,10.78,17.1Z"/><path class="d" d="M247.685,67.215l.212-.059c18.556-5.221,36.68-14.178,50.841-25.828a121.208,121.208,0,0,0,5.785,16.108c2.585,5.759,9.918,15.857,17.048,19.465l8.018,4.057L331.5,79.77a7.721,7.721,0,0,1,5.641-.863c3.774.827,5.032,3.082,5.514,4.357,1.439,3.814.187,10.111-1.933,13.766a20.2,20.2,0,0,1-8.2,8.472,14.85,14.85,0,0,1-7.472,1.2c-.279.595-.478,1.022-.478,1.022-1.051,1.872-3.462,5.111-3.462,5.111a70.2,70.2,0,0,1-7.155,8.021,66.652,66.652,0,0,0,.659,8.975,23.11,23.11,0,0,0,1.419,5.511c2.015,4.853,11.252,7.725,17,9.462a76.533,76.533,0,0,1-48.621,17.03c-6.333-.1-13.06-.321-19.021-2.834a25.4,25.4,0,0,1-12.956-12.162c4.436-1.528,9.985-3.272,13.122-4.655,3.2-1.1,7.333-3.325,6.4-7.44-9.011-.849-16.637-4.449-23.689-11.028-8.047-7.508-11.032-18.717-11.576-30.932-.313-7.043-.486-14.688-.994-22.349l-.026-.395C239.672,69.278,243.688,68.333,247.685,67.215Z"/><path class="b" d="M269.69,135.811a2.478,2.478,0,0,1-.8,1.807,8.573,8.573,0,0,1-2.362,1.593,48.674,48.674,0,0,1-5.393,2.129c-4.377,1.57-8.853,2.877-13.182,4.58a2.471,2.471,0,0,0-1.676,2.952,2.417,2.417,0,0,0,2.952,1.677c4.82-1.9,9.821-3.3,14.666-5.126,4.354-1.644,10.5-3.735,10.593-9.612.051-3.09-4.749-3.09-4.8,0Z"/><path class="b" d="M334.624,23.97c7.41,7.484,11.877,17.865,13.765,28.121,2.106,11.439-.105,23.122-.53,34.6a138.17,138.17,0,0,0,1.177,26.412c1.006,6.462,2.528,12.771,3.164,19.3a52.39,52.39,0,0,1,.368,7.026c-.014.349-.037.7-.066,1.045-.014.168-.147,1.283-.061.682a18.124,18.124,0,0,1-.477,2.307,10.778,10.778,0,0,1-2.415,4.509,13.027,13.027,0,0,1-6.192,3.538c-2.966.844-1.705,5.477,1.276,4.629,4.556-1.3,8.7-4.023,10.807-8.388a21.409,21.409,0,0,0,1.934-9.752c-.162-7.825-1.758-15.463-3.185-23.12a82.142,82.142,0,0,1-1.235-9.071,142.972,142.972,0,0,1-.421-14.386c.1-6.626.707-13.185,1.193-19.787a86.616,86.616,0,0,0-.136-17.077c-1.562-12.366-6.71-25.038-15.572-33.988-2.177-2.2-5.571,1.2-3.394,3.394Z"/><path class="b" d="M309.269,127.87A66.377,66.377,0,0,0,320.4,117.5a57.884,57.884,0,0,0,6.241-8.567c1.533-2.687-2.612-5.108-4.145-2.423a47.83,47.83,0,0,1-2.833,4.25c-.16.222-.325.442-.485.665-.316.444.219-.266-.04.058-.7.881-1.4,1.763-2.132,2.623a61.233,61.233,0,0,1-10.161,9.616,2.474,2.474,0,0,0-.861,3.284,2.416,2.416,0,0,0,3.283.861Z"/><path class="b" d="M329.175,12.882A58.853,58.853,0,0,0,308.161,1.94,63.921,63.921,0,0,0,286.908.215c-13.82,1.032-27.24,6.051-37.38,15.68a53.565,53.565,0,0,0-12.317,18.581,58.374,58.374,0,0,0-4.261,22.066c-.041,4.229.16,8.456.307,12.682s-.011,8.472-.118,12.695q-.324,12.674-1.208,25.326c-.278,4.02-.612,8.021-1.171,12.013a87.665,87.665,0,0,0-1.179,11.9c-.017,6.587,2.361,13.173,7.64,17.35a21.084,21.084,0,0,0,4.336,2.678,2.471,2.471,0,0,0,3.284-.861,2.42,2.42,0,0,0-.861-3.284,16.05,16.05,0,0,1-9.456-12.908,42.91,42.91,0,0,1,.448-10.585c.5-3.877,1.113-7.734,1.417-11.635a437.094,437.094,0,0,0,1.474-48.129c-.239-7.369-.27-14.735,1.805-21.874a52.641,52.641,0,0,1,9.449-18.557c8.072-9.853,20.006-15.682,32.429-17.713,13.6-2.222,27.6-.295,39.325,7.166,1.692,1.076,3.334,2.234,4.91,3.472a2.477,2.477,0,0,0,3.394,0,2.416,2.416,0,0,0,0-3.394Z"/><path class="b" d="M297.058,128.2a58.563,58.563,0,0,1-20.239,4.339,37.164,37.164,0,0,1-18.087-4.163,35.32,35.32,0,0,1-13.9-12.785c-3.247-5.524-4.783-11.948-5.417-18.278-.894-8.913-.733-17.938-1.318-26.877a2.457,2.457,0,0,0-2.4-2.4,2.421,2.421,0,0,0-2.4,2.4c.55,8.4.51,16.85,1.172,25.244.563,7.145,2.009,14.307,5.325,20.716,6.445,12.454,20.264,20.174,34.024,20.885,8.424.434,16.686-1.455,24.515-4.452a2.47,2.47,0,0,0,1.676-2.953,2.418,2.418,0,0,0-2.952-1.676Z"/><path class="b" d="M332.711,81.842a5.482,5.482,0,0,1,4.2-.523,5.724,5.724,0,0,1,2.909,1.7c-.08-.1.2.3.253.4.116.195.217.4.317.6-.22-.446-.023-.07.053.175a10.46,10.46,0,0,1,.282,1.084,12.99,12.99,0,0,1-.017,4.292c-.837,5.625-4.34,11.405-9.565,13.942-.025.013-.328.139-.1.045s-.223.074-.263.087c-.352.108-.7.222-1.055.314a12.815,12.815,0,0,1-1.909.359,8.149,8.149,0,0,1-4.741-.68c-2.712-1.48-5.138,2.663-2.422,4.144,3.447,1.881,7.885,1.75,11.522.45a19.482,19.482,0,0,0,9.027-7.457,23.969,23.969,0,0,0,4.189-10.3c.527-3.627.434-7.632-1.985-10.6-3.069-3.762-9.009-4.549-13.12-2.172-2.674,1.546-.259,5.7,2.422,4.145Z"/><path class="b" d="M296.672,42.879a118.7,118.7,0,0,0,4.2,12.062,52.332,52.332,0,0,0,4.187,8.453c3.811,6.009,8.868,12.25,15.295,15.579,2.74,1.419,5.17-2.722,2.423-4.145-5.815-3.011-10.342-8.685-13.755-14.144C305.413,54.9,303.162,48.122,301.3,41.6c-.847-2.965-5.48-1.7-4.629,1.276Z"/><path class="b" d="M311.607,122.556a57.461,57.461,0,0,0,1.048,9.921,12.907,12.907,0,0,0,4.076,7.6c4.289,3.6,9.952,5.308,15.22,6.908,2.962.9,4.228-3.732,1.276-4.628-2.344-.712-4.682-1.454-6.961-2.356A32.374,32.374,0,0,1,323,138.5a21.817,21.817,0,0,1-2.664-1.647,8.074,8.074,0,0,1-1.814-1.906,12.154,12.154,0,0,1-1.236-3.745,49.641,49.641,0,0,1-.876-8.645c-.11-3.08-4.911-3.094-4.8,0Z"/><path class="b" d="M296.426,40.133c-13.7,11.062-29.971,18.984-46.79,24.018a148.561,148.561,0,0,1-14.6,3.574,2.423,2.423,0,0,0-1.677,2.952,2.451,2.451,0,0,0,2.953,1.676,149.7,149.7,0,0,0,51.067-19.934,128.229,128.229,0,0,0,12.443-8.892,2.416,2.416,0,0,0,0-3.394,2.457,2.457,0,0,0-3.394,0Z"/><path class="b" d="M264.472,113.542a16.656,16.656,0,0,0,7.753,2.069,16.381,16.381,0,0,0,4.019-.32,10.231,10.231,0,0,0,1.745-.545c.453-.182.9-.376,1.349-.568.15-.064.3-.131.452-.193-.354.145.346-.132.34-.13a2.457,2.457,0,0,0,1.676-2.952,2.425,2.425,0,0,0-2.952-1.676c-.423.164-.841.34-1.259.517l-.455.193c.016-.007-.582.247-.383.165.183-.076-.223.087-.26.1-.141.054-.283.107-.426.157-.245.084-.492.157-.744.22-.272.067-.547.118-.822.167s-.131.006.061-.007c-.131.008-.262.027-.394.038a15.275,15.275,0,0,1-1.738.04q-.42-.014-.837-.047c-.14-.012-.28-.025-.419-.039-.051-.006-.5-.063-.2-.021s-.15-.027-.2-.035c-.138-.023-.275-.047-.411-.074q-.456-.087-.906-.2c-.514-.13-1.012-.3-1.512-.47-.434-.151.218.121-.035-.007-.107-.055-.22-.1-.329-.154-.235-.116-.463-.242-.687-.376a2.4,2.4,0,1,0-2.423,4.145Z"/><path class="b" d="M283.868,85.7c-.5-2.49.541-8,5.165-8.013,6.046.644,5.694,7.395,3.34,10.35C290.447,90.451,285.436,91.035,283.868,85.7Z"/><path class="b" d="M247.882,83.152c-.436-2.446.533-7.87,4.687-7.91,5.428.6,5.072,7.238,2.94,10.158C253.764,87.79,249.259,88.393,247.882,83.152Z"/><path class="b" d="M265.862,90.324c-.875,1.274-1.723,2.575-2.482,3.921a5.407,5.407,0,0,0-.774,2.265,3.315,3.315,0,0,0,1.083,2.618,5.013,5.013,0,0,0,1.974,1.191,8.737,8.737,0,0,0,.935.187,2.543,2.543,0,0,0,1.849-.241,2.4,2.4,0,0,0-.573-4.387,6.919,6.919,0,0,1-1.085-.243l.573.242a2.589,2.589,0,0,1-.556-.332l.486.376a3.956,3.956,0,0,1-.423-.416l.376.486a.715.715,0,0,1-.1-.156l.242.574a1.107,1.107,0,0,1-.072-.259l.085.638a1.616,1.616,0,0,1,.009-.278l-.086.638a2.457,2.457,0,0,1,.145-.48l-.242.573a19.039,19.039,0,0,1,1.387-2.373c.454-.714.918-1.423,1.4-2.121a2.4,2.4,0,0,0-2.71-3.526,2.681,2.681,0,0,0-1.435,1.1Z"/><path class="f" d="M215.493,173.292a60.029,60.029,0,0,0-5.485,12.639c-6.134,23.744-3.708,36.3-11.827,59.267-4.69,13.271-1.781,28.481,1.954,32.474a50.762,50.762,0,0,0,14.9,11.085,85.819,85.819,0,0,0,8.158,32.726H323.3c9.291-6.955,29.339-17.115,30.412-17.388,3.506-.89,6.913-2.691,9.638-3.814,3.472-1.43,4.778-2.361,6.546-4.168,6.779-6.652,9.169-19.864,10.154-29.209,1.19-11.3,1.379-19.551,1.739-29.238a259,259,0,0,0-1.851-39.469c-1.537-12.706-3.954-21.338-11.112-32.068-4.271-6.4-20.442-18.133-35.052-21.919a76.636,76.636,0,0,1-49.362,17.624c-6.333-.1-13.06-.321-19.021-2.834a25.419,25.419,0,0,1-13.2-12.666c-12.524,4.24-21.687,7.353-29.768,17.076A70.5,70.5,0,0,0,215.493,173.292Z"/><path class="b" d="M334.337,146.847a69.8,69.8,0,0,1,15.625,6.932,75.092,75.092,0,0,1,12.538,8.987,32.1,32.1,0,0,1,3.886,4.047c-.237-.307.379.55.486.71.438.654.862,1.317,1.279,1.985.787,1.264,1.54,2.55,2.246,3.861a57.749,57.749,0,0,1,5.408,14.559,135.627,135.627,0,0,1,2.515,17.564c.634,6.708,1.036,13.441,1.163,20.179.119,6.327-.111,12.64-.348,18.961-.226,6.007-.533,12.009-1.07,18a105.316,105.316,0,0,1-2.739,17.473c-1.352,5.134-3.3,10.488-7.129,14.314-2.189,2.186,1.2,5.581,3.394,3.394,3.805-3.8,6.083-8.874,7.654-13.949a86.531,86.531,0,0,0,3.063-15.689c.717-6.217,1.143-12.469,1.429-18.719.291-6.364.579-12.744.587-19.116.008-6.894-.293-13.788-.84-20.66a192.276,192.276,0,0,0-2.356-19.648,65.648,65.648,0,0,0-5.029-15.991,46.237,46.237,0,0,0-8.118-12.657A70.749,70.749,0,0,0,354.1,150.665a76.422,76.422,0,0,0-18.49-8.446c-2.972-.866-4.241,3.764-1.276,4.628Z"/><path class="b" d="M251.549,144.02c-9.38,3.176-18.9,6.393-26.42,13.107a65.91,65.91,0,0,0-17.435,28.166c-2.891,10.282-3.965,20.978-5.382,31.529-.664,4.941-1.474,9.865-2.612,14.721q-.99,4.226-2.286,8.37c-.9,2.88-2.016,5.694-2.722,8.631a49.98,49.98,0,0,0-.809,18.652c.588,4.165,1.642,8.961,4.555,12.173,2.079,2.294,5.466-1.109,3.394-3.394-.427-.471.065.19-.314-.391-.175-.268-.342-.539-.5-.819a10.387,10.387,0,0,1-.88-1.954,32.84,32.84,0,0,1-1.5-6.006,43.871,43.871,0,0,1,.225-14.868c1.049-5.577,3.35-10.86,4.777-16.351a137.516,137.516,0,0,0,2.894-14.63c1.439-9.815,2.4-19.672,4.572-29.368a59.8,59.8,0,0,1,5.6-15.556,61.975,61.975,0,0,1,9.189-12.949c7.264-7.747,17.118-11.115,26.923-14.435,2.91-.985,1.662-5.623-1.276-4.628Z"/><path class="b" d="M250.115,147.545a28.047,28.047,0,0,0,11.65,12.357c5.8,3.184,12.423,4.014,18.939,4.245a81.038,81.038,0,0,0,36.67-6.946,83.27,83.27,0,0,0,18.254-11.424,2.416,2.416,0,0,0,0-3.394,2.456,2.456,0,0,0-3.394,0,76.546,76.546,0,0,1-31.314,15.338,71.327,71.327,0,0,1-16.943,1.706c-5.948-.1-12.175-.276-17.731-2.653a23.686,23.686,0,0,1-11.986-11.651,2.423,2.423,0,0,0-3.284-.861,2.45,2.45,0,0,0-.861,3.283Z"/><path class="b" d="M344.067,194.172c-1.183,7.484-2.107,15.014-3,22.536-.48,4.031-.939,8.065-1.344,12.1-.186,1.859-.411,3.728-.464,5.6a45,45,0,0,0,.839,8.536c.934,5.728,1.893,11.454,2.654,17.209a2.48,2.48,0,0,0,2.4,2.4c1.165,0,2.571-1.106,2.4-2.4-.676-5.114-1.474-10.209-2.3-15.3a75.657,75.657,0,0,1-1.156-8.042,43.485,43.485,0,0,1,.287-6.523c.769-8,1.743-15.984,2.784-23.953.474-3.634.965-7.268,1.537-10.888a2.475,2.475,0,0,0-1.676-2.952,2.419,2.419,0,0,0-2.953,1.676Z"/><path class="b" d="M227.986,205.325a54.665,54.665,0,0,0-4.078,17.089,43.09,43.09,0,0,0,1.419,15.955l.242-1.849c-12.369,19.421-15.735,44.337-11.062,66.685a85.965,85.965,0,0,0,6.618,19.489,2.42,2.42,0,0,0,3.283.861,2.45,2.45,0,0,0,.861-3.283c-6.8-14.212-9.066-30.337-7.468-45.947a87.468,87.468,0,0,1,5.125-21.809,73.446,73.446,0,0,1,4.479-9.7q.615-1.11,1.267-2.2c.523-.871,1.369-1.83,1.369-2.89a11.861,11.861,0,0,0-.606-2.534c-.212-.9-.387-1.809-.52-2.724a47.693,47.693,0,0,1,3.215-24.725,2.483,2.483,0,0,0-.861-3.284,2.416,2.416,0,0,0-3.283.861Z"/><path class="d" d="M207.528,268.7c2.8-1.058,5.3-.541,8.659-.785,1.845-.133,6.6-.337,8.3.531a4.957,4.957,0,0,1,2.606,5.165,5.143,5.143,0,0,1-3.948,3.593,27.689,27.689,0,0,0-4.68,1.523A12.572,12.572,0,0,0,216.35,282l-.121.54a16.137,16.137,0,0,0,4.949,2.518,79.535,79.535,0,0,0,9.362,1.832,6.6,6.6,0,0,1,3.333,1.508,4.408,4.408,0,0,1,.83,4.395,4.558,4.558,0,0,1-2,2.61l-1.337.569,2.414.159c2.831.187,3.536.311,4.856,1.573a5.5,5.5,0,0,1,.8,4.585c-.688,1.889-1.435,2.86-2.872,3.42l-.643.25a2.3,2.3,0,0,1,1.1.684,3.894,3.894,0,0,1,.762,2.552,3.408,3.408,0,0,1-1.508,3.053,12.177,12.177,0,0,1-4.911,2.284c-5.3,1.078-8.188,1.295-12.039.544a16.793,16.793,0,0,1-8.664-4.674,40.732,40.732,0,0,1-6.856-8.659c-3.015-5.2-4.115-10.748-4.373-16.953-.086-2.08.848-10.692,5.562-14.717A11.264,11.264,0,0,1,207.528,268.7Z"/><path class="b" d="M216.367,296.125a39.289,39.289,0,0,0,8.289,1.969c3.1.226,6.214.242,9.315.454.3.02.6.04.9.066-.032,0,.838.1.5.045.19.031.376.083.565.116.215.038.43.134.1-.009a3.978,3.978,0,0,1,.518.289c.365.229-.119-.088.115.1.184.145.363.392.139.063.018.026.27.57.172.315A2.957,2.957,0,0,1,236.99,302c-.071.165-.424.827-.408.805a1.542,1.542,0,0,1-.658.594,2.481,2.481,0,0,0-1.676,2.953,2.415,2.415,0,0,0,2.952,1.676,7.7,7.7,0,0,0,4.823-7.4c-.176-2.895-1.587-5.383-4.421-6.356a16.413,16.413,0,0,0-4.261-.563c-1.891-.119-3.785-.2-5.679-.279a27.3,27.3,0,0,1-4.906-.43c-1.732-.392-3.412-1-5.113-1.5-2.968-.878-4.236,3.753-1.276,4.629Z"/><path class="b" d="M233.911,297.479c2.826-1.478,4.085-5.437,3.095-8.371-.972-2.882-3.611-4.154-6.421-4.632-5.674-.966-11.932-1.479-15.624-6.514a2.472,2.472,0,0,0-3.283-.861,2.418,2.418,0,0,0-.861,3.284,18.776,18.776,0,0,0,6,5.4,24.9,24.9,0,0,0,7.743,2.529c1.382.253,2.772.459,4.157.688a12.333,12.333,0,0,1,2.771.644,1.637,1.637,0,0,1,1.068,1.622,2.449,2.449,0,0,1-1.065,2.063c-2.738,1.432-.314,5.576,2.423,4.145Z"/><path class="b" d="M218.664,282.641c.108-.346-.359.518,0,.028a4.381,4.381,0,0,0,.224-.4c.221-.39.458-.771.7-1.145a3.321,3.321,0,0,0,.428-.616c-.05.165-.278.178-.022.054-.975.474.287,0,.349-.025.371-.138.747-.261,1.125-.377,2.664-.814,5.287-1.351,6.988-3.788a6.8,6.8,0,0,0-.484-8.025c-1.618-2.073-3.785-2.682-6.3-2.874a53.421,53.421,0,0,0-6.314.095c-2.6.107-5.243-.155-7.772.588-5.136,1.509-7.918,6.059-9.368,10.928a28.731,28.731,0,0,0-.878,11.827,35.762,35.762,0,0,0,6.015,16.607c3.3,4.726,7.47,9.306,13.038,11.261,5.083,1.785,10.871,1.271,16-.021,2.679-.674,6.043-2.286,7.241-4.932,1.351-2.986.229-7.3-3.208-8.205-1.7-.446-3.751.036-5.49.079a32.088,32.088,0,0,1-4.648-.251,46.018,46.018,0,0,1-6.816-1.2c-2.993-.77-4.27,3.858-1.276,4.629a47.753,47.753,0,0,0,12.3,1.635c1.214-.015,2.426-.1,3.638-.17,1.052-.062,1.155-.309,1.229.673.127,1.671-2.242,2.532-3.669,2.959a24.574,24.574,0,0,1-12.517.628c-4.624-1.134-8.046-4.693-10.85-8.365a30.7,30.7,0,0,1-5.869-13.252,35.49,35.49,0,0,1-.64-6.55c0-.506.042-1.011.092-1.513a17.37,17.37,0,0,1,.3-1.958c.61-3.116,1.712-7.044,4.366-9.067a9.3,9.3,0,0,1,5.772-1.5c1.944-.014,3.874-.119,5.815-.178,1.063-.032,2.13-.035,3.192.031a10.587,10.587,0,0,1,1.147.113c.172.03.34.072.51.108.13.028.723.29.254.051,1.62.826,2.051,2.835.438,3.864-2.023,1.29-4.8,1.024-6.774,2.508a10.058,10.058,0,0,0-2.9,4.474c-.925,2.955,3.708,4.219,4.629,1.276Z"/><path class="d" d="M347.515,270.091a11.435,11.435,0,0,0-4-1.948,31.372,31.372,0,0,0-3.695-.75c-2.9-.193-5.815-.38-9.322-.442-5.165-.09-8.984-.167-11.067,1A4.388,4.388,0,0,0,317.5,270.7a3.9,3.9,0,0,0,1.242,3.672,20.508,20.508,0,0,0,10.2,4.049c-7.236,2.659-12.6,4-18.75,6-6.637,2.147-6.619,4.01-6.666,6.2a3.04,3.04,0,0,0,3.6,3.293l-2.336.189c-4.832.293-7.272,2.023-7.124,5.488.162,3.759,5.119,3.929,7.88,3.856L305,303.8a4.344,4.344,0,1,0,.756,8.653l2.446-.018c-2.222.262-2.929,1.453-2.944,3.507a4.266,4.266,0,0,0,2.052,3.624c2.291.98,5.19.827,7.6.642,6.024-.459,10.8-.9,16.439-1.427a30.956,30.956,0,0,0,6.682-2.486c6.018-3.236,17.842-12.523,19.926-18.179,1.378-6.7.059-13.266-2.746-20.135a20.124,20.124,0,0,0-2.464-3.7,24.413,24.413,0,0,0-5.234-4.182"/><path class="b" d="M329.657,275.6c-4.4,1.661-8.883,3.085-13.39,4.439-2.117.636-4.235,1.267-6.338,1.945a21.647,21.647,0,0,0-5.624,2.441,7.043,7.043,0,0,0-3.174,6.612,5.426,5.426,0,0,0,3.028,4.744c2.044.944,4.358.4,6.494.1,5.2-.717,10.338-1.818,15.459-2.952,3.014-.668,1.739-5.3-1.276-4.629-4.043.9-8.1,1.762-12.18,2.449-1.562.263-3.128.5-4.7.676a4.072,4.072,0,0,1-1.773.018.693.693,0,0,1-.26-.546c-.035-.372.029-.75.027-1.122,0-.575-.108.354,0-.034.054-.2.1-.392.161-.587-.139.448-.067.156.084-.079.141-.218-.1.114-.113.125.082-.1.171-.194.26-.288.073-.076.153-.144.23-.216.271-.252-.271.187.059-.057a8.1,8.1,0,0,1,.8-.508c3.1-1.758,6.909-2.5,10.3-3.522,4.445-1.336,8.861-2.745,13.2-4.383a2.467,2.467,0,0,0,1.676-2.952,2.419,2.419,0,0,0-2.952-1.677Z"/><path class="b" d="M304.785,291.7c-3.173.222-6.753.954-8.551,3.878-1.586,2.582-1.3,6.331,1.1,8.3,2.249,1.845,5.418,2.034,8.209,1.966,2.969-.071,5.938-.311,8.9-.551,3.77-.306,7.541-.656,11.294-1.133a2.478,2.478,0,0,0,2.4-2.4,2.413,2.413,0,0,0-2.4-2.4,195.743,195.743,0,0,1-20.3,1.687,14.421,14.421,0,0,1-3.649-.265,2.848,2.848,0,0,1-1.339-.535c.384.264-.474-.52-.175-.138q-.194-.376-.089-.088a3.39,3.39,0,0,1-.138-.507,2.538,2.538,0,0,1,.218-1.344c-.159.383.126-.2.183-.269-.249.3.343-.337.418-.4a6.428,6.428,0,0,1,1.391-.6,12.163,12.163,0,0,1,2.535-.408,2.459,2.459,0,0,0,2.4-2.4,2.42,2.42,0,0,0-2.4-2.4Z"/><path class="b" d="M326.731,308.467c-5.494.625-11,1.142-16.521,1.4q-1.869.088-3.739.155c-1,.036-1.826.195-2.54-.576a1.678,1.678,0,0,1-.542-1.635A2.127,2.127,0,0,1,305,306.2a2.475,2.475,0,0,0,2.4-2.4,2.414,2.414,0,0,0-2.4-2.4c-3.932.462-7.059,3.818-6.316,7.927a6.941,6.941,0,0,0,7.433,5.513c6.9-.314,13.75-.789,20.617-1.57a2.472,2.472,0,0,0,2.4-2.4,2.415,2.415,0,0,0-2.4-2.4Z"/><path class="b" d="M346.3,272.164a24.257,24.257,0,0,1,3.627,2.695c.406.377.805.767,1.179,1.175a10.618,10.618,0,0,1,.814,1.105,26.7,26.7,0,0,1,3.452,9.156,25.935,25.935,0,0,1,.357,10.733c-.031.151-.265.879-.083.444-.085.2-.194.4-.3.593a14.608,14.608,0,0,1-.836,1.348,22.8,22.8,0,0,1-2.063,2.515,66.083,66.083,0,0,1-12.62,10.483,29.274,29.274,0,0,1-7.08,3.475c-3.267,1.05-6.934,1.011-10.341,1.307q-3.147.273-6.3.52a29.79,29.79,0,0,1-5.879.147c-1.264-.154-2.4-.349-2.576-1.766-.021-.166.034-.794.017-.7.029-.161.23-.713.045-.325-.091.191.048-.139.11-.121-.07-.02-.13.045.123-.046-.038.014.7-.131.881-.157a2.416,2.416,0,0,0,1.676-2.952,2.463,2.463,0,0,0-2.953-1.676c-3.724.54-5.5,4.3-4.4,7.755a6.307,6.307,0,0,0,4.248,4.277,17.541,17.541,0,0,0,6.123.547c4.253-.222,8.5-.662,12.744-1.048a38.156,38.156,0,0,0,6.423-.739,33.857,33.857,0,0,0,5.716-2.129,45.722,45.722,0,0,0,7.311-4.642,80.866,80.866,0,0,0,7.844-6.511,32.31,32.31,0,0,0,5.695-6.734c1.9-3.233,1.858-7.6,1.486-11.228a40.27,40.27,0,0,0-1.521-7.562,27.8,27.8,0,0,0-2.5-6.352,23.693,23.693,0,0,0-8.011-7.733c-2.62-1.653-5.031,2.5-2.422,4.145Z"/><path class="b" d="M348.726,268.019a18.4,18.4,0,0,0-9.5-3.066c-3.607-.237-7.212-.389-10.826-.435-2.911-.037-6.2-.231-8.976.824a6.565,6.565,0,0,0-4.042,8.2c1.321,3.809,6.464,5.7,10.011,6.686,2.981.825,4.254-3.8,1.276-4.629a20.015,20.015,0,0,1-4.825-1.989c-.922-.54-2.348-1.247-1.973-2.564.324-1.134,1.145-1.239,2.079-1.44a21.351,21.351,0,0,1,4.111-.3c3.791-.034,7.587.1,11.37.331,3.176.194,6.228.631,8.872,2.525a2.419,2.419,0,0,0,3.283-.861,2.453,2.453,0,0,0-.861-3.284Z"/></svg>